<?xml version="1.0" encoding="UTF-8" standalone="no"?>
<!DOCTYPE svg PUBLIC "-//W3C//DTD SVG 1.1//EN" "http://www.w3.org/Graphics/SVG/1.1/DTD/svg11.dtd">
<svg width="100%" height="100%" viewBox="0 0 50 50" version="1.1" xmlns="http://www.w3.org/2000/svg" xmlns:xlink="http://www.w3.org/1999/xlink" xml:space="preserve" xmlns:serif="http://www.serif.com/" style="fill-rule:evenodd;clip-rule:evenodd;stroke-linecap:round;stroke-linejoin:round;stroke-miterlimit:1.5;">
    <rect id="Artboard1" x="0" y="0" width="50" height="50" style="fill:none;"/>
    <g id="Artboard11" serif:id="Artboard1">
        <g transform="matrix(1,0,0,1,-0.000597945,5.12957)">
            <g transform="matrix(1,0,0,0.680155,-0.141011,5.83718)">
                <path d="M25.201,3.542C21.651,2.076 18.031,0.636 14.568,0.623C10.974,0.61 7.541,2.077 4.079,3.542L4.079,45.238C10.454,43.851 17.42,43.689 25.201,45.238L25.201,3.542Z" style="fill:white;stroke:#246bac;stroke-width:2.92px;"/>
            </g>
            <g transform="matrix(1,0,0,0.676568,20.8623,5.96334)">
                <path d="M25.201,3.542C21.506,2.016 17.972,0.414 14.373,0.46C10.924,0.505 7.405,2.135 4.079,3.542L4.079,45.238C10.454,43.851 17.42,43.689 25.201,45.238L25.201,3.542Z" style="fill:white;stroke:#246bac;stroke-width:2.93px;"/>
            </g>
            <g transform="matrix(1,0,0,1,0.4502,4.07103)">
                <path d="M8.345,11.705L19.661,11.652" style="fill:none;stroke:#0658a4;stroke-width:1.5px;"/>
            </g>
            <g transform="matrix(1,0,0,1,0.4502,9.66042)">
                <path d="M8.345,11.705L19.661,11.652" style="fill:none;stroke:#0658a4;stroke-width:1.5px;"/>
            </g>
            <g transform="matrix(1,0,0,1,0.4502,15.2498)">
                <path d="M8.345,11.705L19.661,11.652" style="fill:none;stroke:#0658a4;stroke-width:1.5px;"/>
            </g>
            <g transform="matrix(1.38952,0,0,1,-14.1734,1.77636e-15)">
                <path d="M39.378,3.134L32.316,3.134L32.316,25.843L35.85,20.989L39.378,25.843L39.378,3.134Z" style="fill:#0658a4;stroke:white;stroke-width:1.24px;"/>
            </g>
        </g>
    </g>
</svg>
